<?xml version="1.0" standalone="no"?>
<!DOCTYPE svg PUBLIC "-//W3C//DTD SVG 20010904//EN"
 "http://www.w3.org/TR/2001/REC-SVG-20010904/DTD/svg10.dtd">
<svg version="1.0" xmlns="http://www.w3.org/2000/svg"
 width="193.000000pt" height="59.000000pt" viewBox="0 0 193.000000 59.000000"
 preserveAspectRatio="xMidYMid meet">
<metadata>
Created by potrace 1.10, written by Peter Selinger 2001-2011
</metadata>
<g transform="translate(0.000000,59.000000) scale(0.100000,-0.100000)"
fill="#772bed" stroke="none">
<path d="M550 540 c0 -5 6 -10 14 -10 11 0 15 -20 18 -89 l3 -89 -24 19 c-81
64 -181 -56 -105 -126 30 -28 71 -32 100 -10 25 19 35 19 28 0 -5 -11 1 -15
20 -15 14 0 26 5 26 10 0 6 -7 10 -15 10 -13 0 -15 24 -15 155 l0 155 -25 0
c-14 0 -25 -4 -25 -10z m10 -190 c59 -59 -25 -145 -90 -92 -46 37 -15 112 46
112 13 0 33 -9 44 -20z"/>
<path d="M910 540 c0 -5 7 -10 15 -10 13 0 15 -23 15 -145 0 -122 -2 -145 -15
-145 -8 0 -15 -4 -15 -10 0 -5 18 -10 40 -10 22 0 40 5 40 10 0 6 -7 10 -15
10 -13 0 -15 24 -15 155 l0 155 -25 0 c-14 0 -25 -4 -25 -10z"/>
<path d="M150 477 c-109 -58 -107 -218 4 -268 53 -24 88 -24 135 1 58 29 84
78 79 146 -5 61 -38 106 -95 130 -45 20 -73 17 -123 -9z m124 -11 c64 -26 99
-107 73 -167 -26 -61 -61 -84 -127 -84 -51 0 -63 4 -89 29 -53 51 -58 118 -16
183 18 27 67 52 103 53 12 0 38 -6 56 -14z"/>
<path d="M230 448 c0 -18 5 -28 15 -28 19 0 19 11 0 36 -14 18 -14 18 -15 -8z"/>
<path d="M270 441 c6 -12 18 -21 26 -21 19 0 10 16 -17 31 -19 10 -20 9 -9
-10z"/>
<path d="M165 401 c-3 -2 -5 -15 -5 -28 0 -18 5 -23 25 -23 21 0 25 5 25 28 0
21 -5 28 -20 28 -12 0 -23 -2 -25 -5z"/>
<path d="M230 375 c0 -20 5 -25 25 -25 26 0 29 7 19 34 -10 27 -44 20 -44 -9z"/>
<path d="M290 376 c0 -21 5 -26 26 -26 21 0 25 4 22 23 -2 14 -11 23 -25 25
-19 3 -23 -1 -23 -22z"/>
<path d="M100 326 c0 -28 13 -46 32 -46 16 0 19 5 14 23 -3 12 -6 25 -6 30 0
14 -40 7 -40 -7z"/>
<path d="M162 313 c2 -19 9 -27 26 -28 18 -1 22 3 22 27 0 23 -4 28 -26 28
-22 0 -25 -4 -22 -27z"/>
<path d="M230 312 c0 -21 5 -29 18 -29 20 0 32 14 32 40 0 12 -8 17 -25 17
-21 0 -25 -5 -25 -28z"/>
<path d="M290 310 c0 -23 5 -30 19 -30 19 0 31 18 31 46 0 8 -10 14 -25 14
-21 0 -25 -5 -25 -30z"/>
<path d="M140 250 c28 -21 33 -20 24 4 -3 9 -16 16 -28 16 -20 0 -20 -1 4 -20z"/>
<path d="M180 251 c16 -32 30 -34 30 -7 0 19 -5 26 -20 26 -17 0 -19 -3 -10
-19z"/>
<path d="M230 245 c0 -14 2 -25 4 -25 2 0 11 11 20 25 16 24 16 25 -4 25 -15
0 -20 -7 -20 -25z"/>
<path d="M272 250 c-15 -25 -4 -25 28 0 23 18 23 20 5 20 -11 0 -26 -9 -33
-20z"/>
<path d="M1738 445 c4 -50 2 -55 -17 -55 -12 0 -21 -4 -21 -10 0 -5 9 -10 21
-10 19 0 20 -5 17 -75 l-3 -75 28 0 c15 0 27 5 27 10 0 6 -9 10 -20 10 -18 0
-20 7 -20 65 0 63 1 65 25 65 14 0 25 5 25 10 0 6 -11 10 -25 10 -24 0 -25 3
-25 55 0 30 -3 55 -7 55 -5 0 -6 -25 -5 -55z"/>
<path d="M670 380 c0 -5 7 -10 15 -10 13 0 15 -20 15 -120 0 -100 -2 -120 -15
-120 -8 0 -15 -4 -15 -10 0 -5 20 -10 45 -10 25 0 45 5 45 10 0 6 -9 10 -20
10 -18 0 -20 7 -20 61 l0 60 22 -15 c55 -39 128 1 128 69 0 67 -75 109 -126
70 -25 -19 -38 -19 -30 0 4 11 -1 15 -19 15 -14 0 -25 -4 -25 -10z m160 -28
c46 -37 15 -112 -46 -112 -57 0 -87 83 -42 114 30 21 61 20 88 -2z"/>
<path d="M1056 365 c-19 -17 -26 -34 -26 -60 0 -66 76 -108 126 -70 25 19 35
19 28 0 -5 -11 1 -15 20 -15 14 0 26 5 26 10 0 6 -7 10 -15 10 -12 0 -15 15
-15 75 0 41 -4 75 -9 75 -6 0 -8 -9 -6 -20 l4 -21 -26 21 c-34 27 -74 25 -107
-5z m104 -15 c59 -59 -25 -145 -90 -92 -30 24 -30 70 0 94 29 24 65 23 90 -2z"/>
<path d="M1270 380 c0 -5 7 -10 15 -10 12 0 15 -14 15 -65 0 -58 -2 -65 -20
-65 -11 0 -20 -4 -20 -10 0 -5 20 -10 45 -10 25 0 45 5 45 10 0 6 -7 10 -15
10 -11 0 -15 12 -15 50 0 42 4 52 24 66 14 8 35 14 48 12 21 -3 24 -10 28 -66
4 -54 3 -62 -12 -62 -10 0 -18 -4 -18 -10 0 -5 20 -10 45 -10 25 0 45 5 45 10
0 6 -9 10 -20 10 -17 0 -19 8 -22 67 -3 63 -5 68 -30 77 -19 7 -36 6 -55 -3
-28 -13 -40 -12 -35 2 1 4 -9 7 -23 7 -14 0 -25 -4 -25 -10z"/>
<path d="M1534 366 c-57 -48 -20 -147 54 -146 31 1 69 25 53 34 -5 4 -12 2
-16 -4 -13 -21 -95 -4 -95 19 0 5 27 19 60 31 33 12 63 27 66 32 3 5 -4 20
-17 34 -29 31 -70 31 -105 0z m95 -10 c9 -11 1 -17 -40 -35 -61 -25 -69 -26
-69 -6 0 42 82 73 109 41z"/>
</g>
</svg>
